<?xml version="1.0" standalone="no"?>
<!DOCTYPE svg PUBLIC "-//W3C//DTD SVG 20010904//EN"
 "http://www.w3.org/TR/2001/REC-SVG-20010904/DTD/svg10.dtd">
<svg version="1.0" xmlns="http://www.w3.org/2000/svg"
 width="424.000000pt" height="424.000000pt" viewBox="0 0 424.000000 424.000000"
 preserveAspectRatio="xMidYMid meet">
<metadata>
Created by potrace 1.14, written by Peter Selinger 2001-2017
</metadata>
<g transform="translate(0.000000,424.000000) scale(0.100000,-0.100000)"
fill="#000000" stroke="none">
<path d="M350 3976 c-167 -47 -306 -191 -340 -353 -7 -32 -10 -542 -8 -1533
l3 -1485 24 -55 c64 -144 159 -233 301 -280 l65 -22 1725 0 1725 0 65 22 c146
49 250 150 306 295 18 48 19 99 19 1555 l0 1505 -23 59 c-57 146 -175 252
-325 292 -74 19 -3468 19 -3537 0z m3523 -144 c102 -39 176 -114 209 -213 13
-37 16 -103 17 -328 l2 -281 -1981 0 -1981 0 1 274 c1 308 7 348 66 428 40 55
94 94 167 119 49 17 145 18 1752 19 1610 0 1703 -1 1748 -18z m225 -2075 l-3
-1112 -33 -67 c-36 -73 -86 -123 -161 -160 l-46 -23 -1715 -2 c-1302 -2 -1725
0 -1755 9 -58 17 -137 69 -172 115 -17 21 -41 66 -52 100 -20 60 -21 77 -21
1156 l0 1095 1980 0 1981 1 -3 -1112z"/>
<path d="M414 3625 c-112 -57 -154 -200 -90 -309 87 -149 309 -145 388 6 28
54 30 157 5 205 -58 110 -193 153 -303 98z m142 -134 c68 -41 39 -140 -42
-141 -69 0 -101 84 -49 135 29 30 50 31 91 6z"/>
<path d="M1127 3637 c-143 -45 -200 -225 -110 -344 54 -71 143 -101 235 -82
92 20 168 119 168 222 0 51 -32 117 -75 155 -66 58 -137 74 -218 49z m117
-151 c68 -55 7 -163 -75 -134 -63 22 -68 117 -7 142 40 17 53 16 82 -8z"/>
<path d="M1807 3633 c-126 -37 -189 -192 -127 -313 86 -169 342 -151 406 28
62 174 -99 338 -279 285z m142 -183 c27 -78 -63 -140 -123 -85 -66 61 5 168
85 129 15 -8 32 -27 38 -44z"/>
<path d="M2193 2438 c-18 -21 -31 -69 -68 -258 -2 -8 -19 -89 -38 -180 -20
-91 -38 -176 -40 -190 -5 -23 -64 -307 -72 -340 -2 -8 -13 -60 -24 -116 -12
-55 -23 -109 -25 -120 -3 -10 -12 -52 -20 -92 -21 -97 -20 -121 6 -143 45 -40
110 -12 122 53 8 44 11 60 31 148 14 69 60 288 69 335 3 11 29 137 60 280 30
143 57 271 60 285 2 14 16 78 30 143 14 65 26 132 26 148 0 62 -76 92 -117 47z"/>
<path d="M1590 2134 c-30 -25 -68 -58 -85 -73 -16 -14 -73 -62 -125 -106 -217
-183 -230 -196 -230 -234 0 -27 17 -44 137 -148 346 -297 354 -303 389 -303
76 0 91 95 22 143 -13 9 -39 30 -58 47 -19 18 -97 84 -173 148 -132 111 -137
117 -118 132 132 104 382 328 389 349 17 48 -16 91 -70 91 -13 0 -48 -21 -78
-46z"/>
<path d="M2521 2162 c-36 -28 -31 -79 10 -115 19 -16 48 -42 64 -56 17 -14 73
-62 125 -106 52 -44 109 -93 126 -108 18 -15 39 -34 49 -41 15 -11 8 -19 -60
-75 -206 -171 -321 -274 -331 -299 -20 -46 10 -92 61 -92 27 0 67 29 251 185
120 102 231 199 247 216 43 47 37 79 -25 133 -29 24 -107 90 -173 146 -66 56
-133 114 -150 129 -119 105 -151 119 -194 83z"/>
<path d="M1157 890 c-3 -8 -11 -34 -17 -58 -6 -24 -13 -51 -16 -60 -3 -9 1 -6
9 7 l14 24 6 -29 c3 -16 12 -53 20 -81 l15 -53 -44 0 c-35 0 -44 4 -45 18 0 9
-5 2 -10 -17 -6 -18 -8 -36 -5 -39 3 -3 6 2 6 11 0 14 10 17 50 17 44 0 52 -3
59 -23 19 -50 17 -71 -9 -84 -22 -11 -17 -13 50 -12 41 1 68 3 59 6 -17 4 -37
35 -43 68 -4 18 -15 58 -76 260 -10 35 -20 54 -23 45z"/>
<path d="M1730 893 c-27 -10 -71 -57 -87 -93 -19 -45 -19 -145 1 -190 58 -134
194 -132 251 3 36 86 9 211 -55 258 -31 23 -81 33 -110 22z m77 -25 c31 -35
44 -89 42 -175 -3 -128 -48 -196 -109 -163 -65 35 -72 271 -10 338 26 28 51
28 77 0z"/>
<path d="M2002 884 c-67 -46 -58 -167 14 -194 58 -22 134 -64 135 -74 0 -6 2
-20 4 -30 2 -11 -3 -29 -11 -40 -19 -27 -18 -42 2 -25 42 35 56 107 30 157
-15 29 -22 33 -118 75 -42 19 -59 32 -64 51 -9 37 16 80 51 87 28 6 28 7 5 8
-14 0 -36 -6 -48 -15z"/>
<path d="M2433 822 c-36 -64 -33 -77 3 -16 8 14 10 -2 10 -69 l-1 -87 -55 0
c-49 0 -56 -3 -57 -20 -2 -18 4 -20 58 -20 l59 0 -5 -32 c-7 -40 -12 -47 -39
-58 -14 -6 4 -9 59 -9 44 1 73 3 65 6 -24 8 -40 35 -40 65 0 23 4 28 25 28 18
0 25 5 25 20 0 15 -7 20 -25 20 l-25 0 0 125 c0 69 -3 125 -7 125 -5 0 -27
-35 -50 -78z"/>
<path d="M2797 890 c-21 -61 -25 -80 -16 -80 6 0 3 -7 -5 -16 -19 -19 -21 -31
-3 -16 10 9 17 -2 31 -51 10 -34 21 -68 24 -75 4 -11 -7 -13 -46 -11 -29 2
-55 0 -58 -4 -4 -4 18 -7 50 -7 51 0 57 -2 66 -26 18 -46 13 -82 -12 -87 -13
-2 11 -5 52 -5 60 -1 71 1 55 10 -11 6 -21 12 -23 13 -2 2 -18 56 -37 121 -18
66 -38 134 -44 152 -5 18 -10 33 -10 35 0 1 -2 9 -5 17 -2 8 -6 22 -9 30 -4
13 -5 13 -10 0z"/>
<path d="M698 880 c12 -5 26 -18 30 -29 9 -26 7 -295 -3 -311 -4 -6 -17 -15
-29 -20 -14 -6 14 -9 84 -9 88 -1 110 2 138 19 100 61 95 281 -7 338 -33 19
-54 22 -137 21 -70 0 -92 -3 -76 -9z m176 -11 c47 -22 72 -142 52 -254 -11
-65 -35 -88 -92 -89 l-49 -1 -1 170 c0 94 1 173 3 178 6 11 59 8 87 -4z"/>
<path d="M1314 816 c0 -77 8 -91 20 -35 8 43 52 99 77 99 20 0 20 -5 17 -169
-2 -93 -6 -173 -10 -176 -4 -4 -22 -11 -40 -15 -22 -5 4 -8 77 -7 61 0 97 2
80 4 -54 8 -55 12 -55 168 -1 203 -2 195 19 195 26 0 60 -44 74 -97 6 -24 14
-43 17 -43 4 0 5 111 1 143 -1 4 -63 7 -139 7 l-138 0 0 -74z"/>
<path d="M2108 863 c20 -17 38 -45 46 -73 l14 -45 3 68 c3 56 2 65 -8 50 -12
-16 -15 -15 -43 5 -42 31 -50 27 -12 -5z"/>
<path d="M2987 880 c12 -5 25 -19 29 -32 9 -28 8 -293 -1 -309 -4 -6 -17 -14
-29 -19 -13 -6 28 -9 115 -9 l136 -1 0 88 c0 48 -1 78 -4 67 -8 -38 -37 -100
-57 -122 -14 -17 -30 -23 -62 -23 l-42 0 0 152 c1 167 8 205 41 211 12 2 -16
5 -63 5 -58 0 -78 -2 -63 -8z"/>
<path d="M3266 880 c12 -5 25 -14 29 -20 9 -15 10 -279 1 -308 -4 -13 -17 -27
-29 -32 -14 -6 26 -9 114 -9 l135 -1 1 88 c1 48 -1 78 -4 67 -10 -45 -36 -101
-56 -122 -15 -17 -32 -23 -63 -23 l-43 0 1 153 c1 167 8 204 41 210 12 2 -16
5 -63 5 -57 0 -78 -2 -64 -8z"/>
<path d="M2361 700 c-12 -22 -20 -40 -18 -40 7 0 48 72 44 76 -2 2 -14 -14
-26 -36z"/>
<path d="M1310 715 c0 -8 2 -15 4 -15 2 0 6 7 10 15 3 8 1 15 -4 15 -6 0 -10
-7 -10 -15z"/>
<path d="M1586 717 c3 -10 9 -15 12 -12 3 3 0 11 -7 18 -10 9 -11 8 -5 -6z"/>
<path d="M1101 694 c0 -11 3 -14 6 -6 3 7 2 16 -1 19 -3 4 -6 -2 -5 -13z"/>
<path d="M2737 681 c-4 -17 -3 -21 5 -13 5 5 8 16 6 23 -3 8 -7 3 -11 -10z"/>
<path d="M1959 640 c-2 -19 -1 -57 2 -85 3 -27 7 -42 7 -32 3 28 26 30 71 8
22 -12 51 -21 63 -20 16 1 12 4 -14 11 -49 13 -104 68 -115 116 l-10 37 -4
-35z"/>
<path d="M2710 587 c0 -8 -12 -29 -26 -46 l-26 -31 47 0 c43 0 46 2 34 16 -7
9 -15 28 -17 42 -4 30 -12 43 -12 19z"/>
<path d="M1064 574 c-4 -10 -16 -29 -27 -41 l-20 -23 47 0 c43 0 47 2 35 16
-7 9 -15 25 -16 37 -5 29 -11 33 -19 11z"/>
</g>
</svg>
